<svg width="16" height="16" viewBox="0 0 16 16" fill="none" xmlns="http://www.w3.org/2000/svg">
<rect width="16" height="16" rx="8" fill="#300A60"/>
<path d="M9.98772 9.26856C9.98772 9.69523 9.85705 10.0472 9.59572 10.3246C9.33439 10.6019 8.97705 10.7779 8.52372 10.8526C8.49705 10.8632 8.48372 10.8792 8.48372 10.9006L8.49172 11.4206C8.49172 11.4472 8.48105 11.4686 8.45972 11.4846C8.44372 11.5059 8.42239 11.5166 8.39572 11.5166H7.59572C7.56905 11.5166 7.54505 11.5059 7.52372 11.4846C7.50772 11.4686 7.49972 11.4472 7.49972 11.4206L7.50772 10.8926C7.50772 10.8712 7.49439 10.8552 7.46772 10.8446C7.01439 10.7539 6.65705 10.5672 6.39572 10.2846C6.13972 10.0019 6.01172 9.64723 6.01172 9.22056V9.04456C6.01172 9.0179 6.01972 8.99656 6.03572 8.98056C6.05705 8.95923 6.08105 8.94856 6.10772 8.94856H6.97172C6.99839 8.94856 7.01972 8.95923 7.03572 8.98056C7.05705 8.99656 7.06772 9.0179 7.06772 9.04456V9.16456C7.06772 9.3779 7.16105 9.55923 7.34772 9.70856C7.53439 9.85256 7.79039 9.92456 8.11572 9.92456C8.38772 9.92456 8.58772 9.8659 8.71572 9.74856C8.84905 9.6259 8.91572 9.47656 8.91572 9.30056C8.91572 9.17256 8.87572 9.0659 8.79572 8.98056C8.71572 8.8899 8.60372 8.81256 8.45972 8.74856C8.32105 8.67923 8.09972 8.5859 7.79572 8.46856C7.44905 8.3459 7.15839 8.22056 6.92372 8.09256C6.68905 7.96456 6.48905 7.79123 6.32372 7.57256C6.16372 7.34856 6.08372 7.0739 6.08372 6.74856C6.08372 6.3379 6.20639 5.99923 6.45172 5.73256C6.70239 5.46056 7.03839 5.28456 7.45972 5.20456C7.48639 5.1939 7.49972 5.1779 7.49972 5.15656L7.48372 4.57256C7.48372 4.5459 7.49172 4.52456 7.50772 4.50856C7.52905 4.48723 7.55305 4.47656 7.57972 4.47656H8.37972C8.40639 4.47656 8.42772 4.48723 8.44372 4.50856C8.46505 4.52456 8.47572 4.5459 8.47572 4.57256L8.46772 5.17256C8.46772 5.1939 8.48105 5.2099 8.50772 5.22056C8.95039 5.31123 9.30239 5.5059 9.56372 5.80456C9.82505 6.0979 9.95572 6.4579 9.95572 6.88456V7.00456C9.95572 7.03123 9.94505 7.05523 9.92372 7.07656C9.90772 7.09256 9.88639 7.10056 9.85972 7.10056H8.98772C8.96105 7.10056 8.93705 7.09256 8.91572 7.07656C8.89972 7.05523 8.89172 7.03123 8.89172 7.00456V6.94056C8.89172 6.71656 8.80372 6.52723 8.62772 6.37256C8.45172 6.21256 8.21172 6.13256 7.90772 6.13256C7.66772 6.13256 7.48105 6.1859 7.34772 6.29256C7.21439 6.39923 7.14772 6.5459 7.14772 6.73256C7.14772 6.8659 7.18505 6.9779 7.25972 7.06856C7.33972 7.15923 7.45705 7.2419 7.61172 7.31656C7.76639 7.39123 8.00639 7.48723 8.33172 7.60456C8.68905 7.7379 8.97172 7.8579 9.17972 7.96456C9.38772 8.07123 9.57439 8.23123 9.73972 8.44456C9.90505 8.6579 9.98772 8.93256 9.98772 9.26856Z" fill="white"/>
</svg>
